<?xml version="1.0" standalone="no"?>
<!DOCTYPE svg PUBLIC "-//W3C//DTD SVG 20010904//EN"
 "http://www.w3.org/TR/2001/REC-SVG-20010904/DTD/svg10.dtd">
<svg version="1.0" xmlns="http://www.w3.org/2000/svg"
 width="200.000000pt" height="200.000000pt" viewBox="0 0 200.000000 200.000000"
 preserveAspectRatio="xMidYMid meet">
<metadata>
Created by potrace 1.14, written by Peter Selinger 2001-2017
</metadata>
<g transform="translate(0.000000,200.000000) scale(0.100000,-0.100000)"
fill="#000000" stroke="none">
<path d="M1010 1983 c-36 -8 -76 -16 -90 -19 -59 -12 -210 -100 -254 -148 -10
-12 -22 -20 -26 -19 -122 34 -257 9 -360 -66 -83 -61 -167 -172 -154 -205 8
-21 47 -31 72 -17 32 17 244 2 265 -19 5 -4 1 -22 -8 -40 -72 -139 -97 -317
-61 -430 47 -147 158 -371 213 -428 7 -7 13 -17 13 -22 0 -14 156 -164 198
-190 47 -28 49 -35 26 -88 -25 -57 -50 -161 -53 -218 -4 -87 31 -94 118 -24
24 20 56 34 88 39 64 10 115 41 154 96 l31 43 39 -13 c108 -38 198 -13 311 89
119 107 133 116 185 113 50 -3 79 18 69 51 -8 23 -127 85 -199 103 -46 11
-226 8 -287 -6 -14 -3 -46 -8 -71 -11 l-46 -6 -35 94 c-44 114 -58 179 -58
263 0 36 -3 66 -7 66 -5 1 -29 3 -55 3 -55 2 -81 20 -72 50 4 12 12 25 18 29
19 13 157 -2 265 -29 121 -30 131 -27 131 47 0 55 -33 161 -61 198 -11 13 -19
27 -19 31 0 12 99 30 166 30 49 0 96 -10 191 -41 91 -30 134 -39 158 -35 63
12 49 30 -83 109 -142 85 -221 122 -278 133 -69 12 -85 32 -59 74 20 33 195
-21 325 -100 134 -82 164 -99 167 -97 1 2 -2 20 -8 41 -12 43 -96 132 -133
142 -20 5 -28 16 -36 48 -46 179 -182 309 -395 378 -50 16 -224 17 -295 1z
m272 -258 c14 -32 -5 -57 -41 -53 -18 2 -27 10 -29 26 -7 50 49 72 70 27z"/>
</g>
</svg>
