<?xml version="1.0" standalone="no"?><!DOCTYPE svg PUBLIC "-//W3C//DTD SVG 1.1//EN" "http://www.w3.org/Graphics/SVG/1.1/DTD/svg11.dtd"><svg t="1675944868258" class="icon" viewBox="0 0 1024 1024" version="1.1" xmlns="http://www.w3.org/2000/svg" p-id="2609" xmlns:xlink="http://www.w3.org/1999/xlink" width="200" height="200"><path d="M422 542h180v60h-180z m0 0" p-id="2610"></path><path d="M830.758 602H662v30c0 16.58-13.42 30-30 30H392c-16.58 0-30-13.42-30-30v-30H193.242a89.9 89.9 0 0 1-85.374-61.524L0 216.82V872c0 49.626 40.376 90 90 90h844c49.626 0 90-40.376 90-90V216.844l-107.876 323.632A89.88 89.88 0 0 1 830.76 602z m0 0" p-id="2611"></path><path d="M632 62H392c-49.626 0-90 40.376-90 90v30H51.618l113.148 339.492A29.994 29.994 0 0 0 193.24 542H362v-30c0-16.58 13.42-30 30-30h240c16.58 0 30 13.42 30 30v30h168.758c12.92 0 24.374-8.234 28.476-20.508L972.39 182H722V152c0-49.626-40.374-90-90-90zM362 182V152c0-16.554 13.446-30 30-30h240c16.554 0 30 13.446 30 30v30z m0 0" p-id="2612"></path></svg>